STARTFONT 2.1
FONT -FreeType-Seven Segment-Medium-R-Normal--62-450-100-100-P-204-ISO10646-1
SIZE 45 100 100
FONTBOUNDINGBOX 145 62 0 -8
COMMENT "Generated by fontforge, http://fontforge.sourceforge.net"
COMMENT ""
COMMENT "Converted from OpenType font "7segment.ttf" by "otf2bdf 3.0"."
COMMENT ""
STARTPROPERTIES 19
FOUNDRY "FreeType"
FAMILY_NAME "Seven Segment"
WEIGHT_NAME "Medium"
SLANT "R"
SETWIDTH_NAME "Normal"
ADD_STYLE_NAME ""
PIXEL_SIZE 62
POINT_SIZE 450
RESOLUTION_X 100
RESOLUTION_Y 100
SPACING "P"
AVERAGE_WIDTH 204
CHARSET_REGISTRY "ISO10646"
CHARSET_ENCODING "1"
FONT_ASCENT 54
FONT_DESCENT 10
COPYRIGHT "-FreeType-Seven Segment-Medium-R-Normal--62-450-100-100-P-204-ISO10646-1"
_OTF_FONTFILE "7segment.ttf"
_OTF_PSNAME "SevenSegmentRegular"
ENDPROPERTIES
CHARS 164
STARTCHAR $0000
ENCODING 0
SWIDTH 0 0
DWIDTH 0 0
BBX 0 0 0 0
BITMAP
ENDCHAR
STARTCHAR $000A
ENCODING 10
SWIDTH 480 0
DWIDTH 30 0
BBX 0 0 0 0
BITMAP
ENDCHAR
STARTCHAR $000D
ENCODING 13
SWIDTH 480 0
DWIDTH 30 0
BBX 0 0 0 0
BITMAP
ENDCHAR
STARTCHAR $0020
ENCODING 32
SWIDTH 304 0
DWIDTH 19 0
BBX 0 0 0 0
BITMAP
ENDCHAR
STARTCHAR $0021
ENCODING 33
SWIDTH 192 0
DWIDTH 12 0
BBX 4 44 4 0
BITMAP
40
E0
F0
F0
F0
F0
F0
F0
F0
F0
F0
F0
F0
F0
F0
F0
F0
F0
F0
F0
F0
F0
F0
F0
F0
F0
F0
F0
F0
F0
F0
F0
F0
F0
F0
60
00
00
40
E0
F0
F0
E0
40
ENDCHAR
STARTCHAR $0022
ENCODING 34
SWIDTH 288 0
DWIDTH 18 0
BBX 10 6 4 38
BITMAP
4100
E380
F3C0
F3C0
E380
4100
ENDCHAR
STARTCHAR $0023
ENCODING 35
SWIDTH 544 0
DWIDTH 34 0
BBX 26 30 4 0
BITMAP
00020200
000E0E00
000F0E00
001F1F00
001E1E00
001E1E00
003E3C00
003C3C00
003C7C00
7FFFFF80
FFFFFFC0
FFFFFFC0
7FFFFF80
00F0F000
01F1E000
01E1E000
03E3E000
7FFFFF80
FFFFFFC0
FFFFFFC0
7FFFFF80
07878000
0F8F8000
0F0F0000
0F0F0000
1F1E0000
1E1E0000
1E1E0000
1C1C0000
08080000
ENDCHAR
STARTCHAR $0024
ENCODING 36
SWIDTH 512 0
DWIDTH 32 0
BBX 24 54 4 -5
BITMAP
001800
003C00
003C00
003C00
003C00
0FFFE0
1FFFF0
1FFFF0
4FFFE0
E00000
F00000
F00000
F00000
F00000
F00000
F00000
F00000
F00000
F00000
F00000
F00000
F00000
F00000
F00000
E00000
4FFFE0
1FFFF0
1FFFF0
0FFFE4
00000E
00000F
00000F
00000F
00000F
00000F
00000F
00000F
00000F
00000F
00000F
00000F
00000F
00000F
00000F
00000E
0FFFE4
1FFFF0
1FFFF0
0FFFE0
003C00
003C00
003C00
003C00
001800
ENDCHAR
STARTCHAR $0025
ENCODING 37
SWIDTH 704 0
DWIDTH 44 0
BBX 36 44 4 0
BITMAP
0000000600
0000000E00
0000001F00
0000001E00
0000003E00
0000007C00
0000007800
3FE000F800
3FE000F000
C01801F000
C01803E000
C01803E000
C01807C000
C018078000
C0180F8000
C0180F0000
C0181F0000
C0183E0000
C0183E0000
3FE07C0000
3FE0780000
0000F80000
0001F00000
0001F03FC0
0003E03FC0
0003C1C030
0007C1C030
000781C030
000F81C030
001F01C030
001F01C030
003E01C030
003C01C030
007C01C030
0078018030
00F8003FC0
01F0003FC0
01E0000000
03E0000000
03C0000000
07C0000000
0780000000
0780000000
0600000000
ENDCHAR
STARTCHAR $0026
ENCODING 38
SWIDTH 2384 0
DWIDTH 149 0
BBX 141 44 4 0
BITMAP
0FFFE0000000000000000000000000000000
1FFFF0000000000000000000000000000000
1FFFF0000000000000000000000000000000
4FFFE0000000000000000000000000000000
E00000000000000000000000000000000000
F00000000000000000000000000000000000
F00000000000000000000000000000000000
F00000000000000000000000000000000000
F00000000000000000000000000000000000
F00000000000000000000000000000000000
F00000000000000000000000000000000000
F00000000000000000000000000000000000
F00000000000000000000000000000000000
F00000000000000000000000000000000000
F00000000000000000000000000000000000
F00000000000000000000000000000000000
F00000000000000000000000000000000000
F00000000000000000000000000000000000
F00000000000000000000000000000000000
E00000000000000000000000000000000000
4FFFE0003FFF8001FFFC000FFFE00007FFF0
1FFFF0007FFFC003FFFE001FFFF0000FFFF8
1FFFF0007FFFC003FFFE001FFFF0000FFFF8
4FFFE0013FFF8009FFFC004FFFE40027FFF0
E00000038000001C000000E0000E00700000
F00000078000003C000000F0000F00F00000
F00000078000003C000000F0000F00F00000
F00000078000003C000000F0000F00F00000
F00000078000003C000000F0000F00F00000
F00000078000003C000000F0000F00F00000
F00000078000003C000000F0000F00F00000
F00000078000003C000000F0000F00F00000
F00000078000003C000000F0000F00F00000
F00000078000003C000000F0000F00F00000
F00000078000003C000000F0000F00F00000
F00000078000003C000000F0000F00F00000
F00000078000003C000000F0000F00F00000
F00000078000003C000000F0000F00F00000
F00000078000003C000000F0000F00F00000
E00000078000003C000000E0000E00F00000
4FFFE0078000003C0000004FFFE400F00000
1FFFF0078000003C0000001FFFF000F00000
1FFFF0038000001C0000001FFFF000700000
0FFFE001000000080000000FFFE000200000
ENDCHAR
STARTCHAR $0028
ENCODING 40
SWIDTH 384 0
DWIDTH 24 0
BBX 16 44 4 0
BITMAP
0FFE
1FFF
1FFF
4FFE
E000
F000
F000
F000
F000
F000
F000
F000
F000
F000
F000
F000
F000
F000
F000
E000
4000
0000
0000
4000
E000
F000
F000
F000
F000
F000
F000
F000
F000
F000
F000
F000
F000
F000
F000
E000
4FFE
1FFF
1FFF
0FFE
ENDCHAR
STARTCHAR $0029
ENCODING 41
SWIDTH 384 0
DWIDTH 24 0
BBX 16 44 4 0
BITMAP
7FF0
FFF8
FFF8
7FF2
0007
000F
000F
000F
000F
000F
000F
000F
000F
000F
000F
000F
000F
000F
000F
0007
0002
0000
0000
0002
0007
000F
000F
000F
000F
000F
000F
000F
000F
000F
000F
000F
000F
000F
000F
0007
7FF2
FFF8
FFF8
7FF0
ENDCHAR
STARTCHAR $002A
ENCODING 42
SWIDTH 416 0
DWIDTH 26 0
BBX 18 20 4 32
BITMAP
00C000
01E000
01E000
01E000
F1E3C0
FDE7C0
FFFFC0
7FFF80
1FFE00
0FFC00
0FFC00
3FFF00
FFFFC0
FFFFC0
F9E7C0
61E180
01E000
01E000
01E000
00C000
ENDCHAR
STARTCHAR $002B
ENCODING 43
SWIDTH 672 0
DWIDTH 42 0
BBX 33 34 4 3
BITMAP
0000800000
0001C00000
0001E00000
0001E00000
0001E00000
0001E00000
0001E00000
0001E00000
0001E00000
0001E00000
0001E00000
0001E00000
0001E00000
0001E00000
0001C00000
7FFC9FFF00
FFFE3FFF80
FFFE3FFF80
7FFC9FFF00
0001C00000
0001E00000
0001E00000
0001E00000
0001E00000
0001E00000
0001E00000
0001E00000
0001E00000
0001E00000
0001E00000
0001E00000
0001E00000
0001C00000
0000800000
ENDCHAR
STARTCHAR $002C
ENCODING 44
SWIDTH 240 0
DWIDTH 15 0
BBX 7 7 4 0
BITMAP
1E
3E
7E
FC
F8
F0
E0
ENDCHAR
STARTCHAR $002D
ENCODING 45
SWIDTH 416 0
DWIDTH 26 0
BBX 17 4 4 20
BITMAP
7FFF00
FFFF80
FFFF80
7FFF00
ENDCHAR
STARTCHAR $002E
ENCODING 46
SWIDTH 192 0
DWIDTH 12 0
BBX 4 6 4 0
BITMAP
40
E0
F0
F0
E0
40
ENDCHAR
STARTCHAR $002F
ENCODING 47
SWIDTH 544 0
DWIDTH 34 0
BBX 26 43 4 0
BITMAP
000001C0
000003C0
000003C0
000007C0
00000F80
00000F00
00001F00
00001E00
00003E00
00003C00
00007C00
0000F800
0000F000
0001F000
0001E000
0003E000
0007C000
0007C000
00078000
00070000
00000000
00000000
00180000
00780000
00780000
00F80000
00F00000
01F00000
01E00000
03E00000
07C00000
07800000
0F800000
0F000000
1F000000
1E000000
3E000000
7C000000
78000000
F8000000
F0000000
F0000000
C0000000
ENDCHAR
STARTCHAR $0030
ENCODING 48
SWIDTH 512 0
DWIDTH 32 0
BBX 24 44 4 0
BITMAP
0FFFE0
1FFFF0
1FFFF0
4FFFE4
E0000E
F0000F
F0000F
F0000F
F0000F
F0000F
F0000F
F0000F
F0000F
F0000F
F0000F
F0000F
F0000F
F0000F
F0000F
E0000E
400004
000000
000000
400004
E0000E
F0000F
F0000F
F0000F
F0000F
F0000F
F0000F
F0000F
F0000F
F0000F
F0000F
F0000F
F0000F
F0000F
F0000F
E0000E
4FFFE4
1FFFF0
1FFFF0
0FFFE0
ENDCHAR
STARTCHAR $0031
ENCODING 49
SWIDTH 516 0
DWIDTH 32 0
BBX 24 44 4 0
BITMAP
000004
00000E
00000F
00000F
00000F
00000F
00000F
00000F
00000F
00000F
00000F
00000F
00000F
00000F
00000F
00000F
00000F
00000F
00000F
00000E
000004
000000
000000
000006
00000F
00000F
00000F
00000F
00000F
00000F
00000F
00000F
00000F
00000F
00000F
00000F
00000F
00000F
00000F
00000F
00000F
00000F
00000E
000004
ENDCHAR
STARTCHAR $0032
ENCODING 50
SWIDTH 512 0
DWIDTH 32 0
BBX 24 44 4 0
BITMAP
0FFFE0
1FFFF0
1FFFF0
0FFFE4
00000E
00000F
00000F
00000F
00000F
00000F
00000F
00000F
00000F
00000F
00000F
00000F
00000F
00000F
00000F
00000E
0FFFE4
1FFFF0
1FFFF0
4FFFE0
E00000
F00000
F00000
F00000
F00000
F00000
F00000
F00000
F00000
F00000
F00000
F00000
F00000
F00000
F00000
E00000
4FFFE0
1FFFF0
1FFFF0
0FFFE0
ENDCHAR
STARTCHAR $0033
ENCODING 51
SWIDTH 516 0
DWIDTH 32 0
BBX 24 44 4 0
BITMAP
0FFFE0
1FFFF0
1FFFF0
0FFFE4
00000E
00000F
00000F
00000F
00000F
00000F
00000F
00000F
00000F
00000F
00000F
00000F
00000F
00000F
00000F
00000E
0FFFE4
1FFFF0
1FFFF0
0FFFE4
00000E
00000F
00000F
00000F
00000F
00000F
00000F
00000F
00000F
00000F
00000F
00000F
00000F
00000F
00000F
00000E
0FFFE4
1FFFF0
1FFFF0
0FFFE0
ENDCHAR
STARTCHAR $0034
ENCODING 52
SWIDTH 512 0
DWIDTH 32 0
BBX 24 44 4 0
BITMAP
400004
E0000E
F0000F
F0000F
F0000F
F0000F
F0000F
F0000F
F0000F
F0000F
F0000F
F0000F
F0000F
F0000F
F0000F
F0000F
F0000F
F0000F
F0000F
E0000E
4FFFE4
1FFFF0
1FFFF0
0FFFE4
00000E
00000F
00000F
00000F
00000F
00000F
00000F
00000F
00000F
00000F
00000F
00000F
00000F
00000F
00000F
00000F
00000F
00000F
00000E
000004
ENDCHAR
STARTCHAR $0035
ENCODING 53
SWIDTH 512 0
DWIDTH 32 0
BBX 24 44 4 0
BITMAP
0FFFE0
1FFFF0
1FFFF0
4FFFE0
E00000
F00000
F00000
F00000
F00000
F00000
F00000
F00000
F00000
F00000
F00000
F00000
F00000
F00000
F00000
E00000
4FFFE0
1FFFF0
1FFFF0
0FFFE4
00000E
00000F
00000F
00000F
00000F
00000F
00000F
00000F
00000F
00000F
00000F
00000F
00000F
00000F
00000F
00000E
0FFFE4
1FFFF0
1FFFF0
0FFFE0
ENDCHAR
STARTCHAR $0036
ENCODING 54
SWIDTH 512 0
DWIDTH 32 0
BBX 24 44 4 0
BITMAP
0FFFE0
1FFFF0
1FFFF0
4FFFE0
E00000
F00000
F00000
F00000
F00000
F00000
F00000
F00000
F00000
F00000
F00000
F00000
F00000
F00000
F00000
E00000
4FFFE0
1FFFF0
1FFFF0
4FFFE4
E0000E
F0000F
F0000F
F0000F
F0000F
F0000F
F0000F
F0000F
F0000F
F0000F
F0000F
F0000F
F0000F
F0000F
F0000F
E0000E
4FFFE4
1FFFF0
1FFFF0
0FFFE0
ENDCHAR
STARTCHAR $0037
ENCODING 55
SWIDTH 516 0
DWIDTH 32 0
BBX 24 44 4 0
BITMAP
0FFFE0
1FFFF0
1FFFF0
0FFFE4
00000E
00000F
00000F
00000F
00000F
00000F
00000F
00000F
00000F
00000F
00000F
00000F
00000F
00000F
00000F
00000E
000004
000000
000000
000004
00000E
00000F
00000F
00000F
00000F
00000F
00000F
00000F
00000F
00000F
00000F
00000F
00000F
00000F
00000F
00000F
00000F
00000F
00000E
000004
ENDCHAR
STARTCHAR $0038
ENCODING 56
SWIDTH 512 0
DWIDTH 32 0
BBX 24 44 4 0
BITMAP
0FFFE0
1FFFF0
1FFFF0
4FFFE4
E0000E
F0000F
F0000F
F0000F
F0000F
F0000F
F0000F
F0000F
F0000F
F0000F
F0000F
F0000F
F0000F
F0000F
F0000F
E0000E
4FFFE4
1FFFF0
1FFFF0
4FFFE4
E0000E
F0000F
F0000F
F0000F
F0000F
F0000F
F0000F
F0000F
F0000F
F0000F
F0000F
F0000F
F0000F
F0000F
F0000F
E0000E
4FFFE4
1FFFF0
1FFFF0
0FFFE0
ENDCHAR
STARTCHAR $0039
ENCODING 57
SWIDTH 512 0
DWIDTH 32 0
BBX 24 44 4 0
BITMAP
0FFFE0
1FFFF0
1FFFF0
4FFFE4
E0000E
F0000F
F0000F
F0000F
F0000F
F0000F
F0000F
F0000F
F0000F
F0000F
F0000F
F0000F
F0000F
F0000F
F0000F
E0000E
4FFFE4
1FFFF0
1FFFF0
0FFFE4
00000E
00000F
00000F
00000F
00000F
00000F
00000F
00000F
00000F
00000F
00000F
00000F
00000F
00000F
00000F
00000E
0FFFE4
1FFFF0
1FFFF0
0FFFE0
ENDCHAR
STARTCHAR $003A
ENCODING 58
SWIDTH 192 0
DWIDTH 12 0
BBX 4 18 4 0
BITMAP
40
E0
F0
F0
E0
40
00
00
00
00
00
00
40
E0
F0
F0
E0
40
ENDCHAR
STARTCHAR $003C
ENCODING 60
SWIDTH 288 0
DWIDTH 18 0
BBX 10 44 4 0
BITMAP
00C0
01C0
03C0
03C0
07C0
0780
0780
0F80
0F00
1F00
1E00
1E00
3E00
3C00
7C00
7800
7800
F800
F000
F000
6000
0000
0000
6000
F000
F000
F800
7800
7800
7C00
3C00
3E00
1E00
1E00
1F00
0F00
0F80
0780
0780
07C0
03C0
03C0
01C0
00C0
ENDCHAR
STARTCHAR $003D
ENCODING 61
SWIDTH 560 0
DWIDTH 35 0
BBX 26 15 4 10
BITMAP
7FFFFF80
FFFFFFC0
FFFFFFC0
7FFFFF80
00000000
00000000
00000000
00000000
00000000
00000000
00000000
7FFFFF80
FFFFFFC0
FFFFFFC0
7FFFFF80
ENDCHAR
STARTCHAR $003E
ENCODING 62
SWIDTH 288 0
DWIDTH 18 0
BBX 10 44 4 0
BITMAP
4000
F000
F000
F000
7800
7800
7C00
3C00
3C00
1E00
1E00
1F00
0F00
0F00
0F80
0780
07C0
03C0
03C0
03C0
00C0
0000
0000
00C0
03C0
03C0
03C0
07C0
0780
0F80
0F00
0F00
1F00
1E00
1E00
3C00
3C00
7C00
7800
7800
F000
F000
F000
4000
ENDCHAR
STARTCHAR $003F
ENCODING 63
SWIDTH 512 0
DWIDTH 32 0
BBX 24 44 4 0
BITMAP
0FFFE0
1FFFF0
1FFFF0
0FFFE4
00000E
00000F
00000F
00000F
00000F
00000F
00000F
00000F
00000F
00000F
00000F
00000F
00000F
00000F
00000F
00000E
0FFFE4
1FFFF0
1FFFF0
4FFFE0
E00000
F00000
F00000
F00000
F00000
F00000
F00000
F00000
F00000
F00000
F00000
600000
000000
000000
400000
E00000
F00000
F00000
E00000
400000
ENDCHAR
STARTCHAR $0040
ENCODING 64
SWIDTH 512 0
DWIDTH 32 0
BBX 24 44 4 0
BITMAP
0FFFE0
1FFFF0
1FFFF0
4FFFE4
E0000E
F0000F
F0000F
F0000F
F0000F
F0000F
F00FEF
F01FEF
F01FEF
F00FEF
F0C00F
F1E00F
F1E00F
F1E00F
F1E00F
E1E006
41E000
01E000
01E000
41E006
E1E00F
F1E00F
F1E00F
F1E00F
F1E00F
F0E00E
F04FE4
F01FF0
F01FF0
F00FE0
F00000
F00000
F00000
F00000
F00000
E00000
4FFFE0
1FFFF0
1FFFF0
0FFFE0
ENDCHAR
STARTCHAR $0041
ENCODING 65
SWIDTH 512 0
DWIDTH 32 0
BBX 24 44 4 0
BITMAP
0FFFE0
1FFFF0
1FFFF0
4FFFE4
E0000E
F0000F
F0000F
F0000F
F0000F
F0000F
F0000F
F0000F
F0000F
F0000F
F0000F
F0000F
F0000F
F0000F
F0000F
E0000E
4FFFE4
1FFFF0
1FFFF0
4FFFE4
E0000E
F0000F
F0000F
F0000F
F0000F
F0000F
F0000F
F0000F
F0000F
F0000F
F0000F
F0000F
F0000F
F0000F
F0000F
F0000F
F0000F
F0000F
E0000E
400004
ENDCHAR
STARTCHAR $0042
ENCODING 66
SWIDTH 512 0
DWIDTH 32 0
BBX 24 44 4 0
BITMAP
7FFFE0
BFFFF0
9FFFF0
CFFFE4
E0000E
F0000F
F0000F
F0000F
F0000F
F0000F
F0000F
F0000F
F0000F
F0000F
F0000F
F0000F
F0000F
F0000F
F0000F
E0000E
4FFFE4
1FFFF0
1FFFF0
4FFFE4
E0000E
F0000F
F0000F
F0000F
F0000F
F0000F
F0000F
F0000F
F0000F
F0000F
F0000F
F0000F
F0000F
F0000F
F0000F
E0000E
CFFFE4
9FFFF0
BFFFF0
7FFFE0
ENDCHAR
STARTCHAR $0043
ENCODING 67
SWIDTH 464 0
DWIDTH 29 0
BBX 20 44 4 0
BITMAP
0FFFE0
1FFFF0
1FFFF0
4FFFE0
E00000
F00000
F00000
F00000
F00000
F00000
F00000
F00000
F00000
F00000
F00000
F00000
F00000
F00000
F00000
E00000
400000
000000
000000
400000
E00000
F00000
F00000
F00000
F00000
F00000
F00000
F00000
F00000
F00000
F00000
F00000
F00000
F00000
F00000
E00000
4FFFE0
1FFFF0
1FFFF0
0FFFE0
ENDCHAR
STARTCHAR $0044
ENCODING 68
SWIDTH 512 0
DWIDTH 32 0
BBX 24 44 4 0
BITMAP
7FFFE0
BFFFF0
9FFFF0
CFFFE4
E0000E
F0000F
F0000F
F0000F
F0000F
F0000F
F0000F
F0000F
F0000F
F0000F
F0000F
F0000F
F0000F
F0000F
F0000F
E0000E
400004
000000
000000
400004
E0000E
F0000F
F0000F
F0000F
F0000F
F0000F
F0000F
F0000F
F0000F
F0000F
F0000F
F0000F
F0000F
F0000F
F0000F
E0000E
CFFFE4
9FFFF0
BFFFF0
7FFFE0
ENDCHAR
STARTCHAR $0045
ENCODING 69
SWIDTH 464 0
DWIDTH 29 0
BBX 20 44 4 0
BITMAP
0FFFE0
1FFFF0
1FFFF0
4FFFE0
E00000
F00000
F00000
F00000
F00000
F00000
F00000
F00000
F00000
F00000
F00000
F00000
F00000
F00000
F00000
E00000
4FFFE0
1FFFF0
1FFFF0
4FFFE0
E00000
F00000
F00000
F00000
F00000
F00000
F00000
F00000
F00000
F00000
F00000
F00000
F00000
F00000
F00000
E00000
4FFFE0
1FFFF0
1FFFF0
0FFFE0
ENDCHAR
STARTCHAR $0046
ENCODING 70
SWIDTH 464 0
DWIDTH 29 0
BBX 20 44 4 0
BITMAP
0FFFE0
1FFFF0
1FFFF0
4FFFE0
E00000
F00000
F00000
F00000
F00000
F00000
F00000
F00000
F00000
F00000
F00000
F00000
F00000
F00000
F00000
E00000
4FFFE0
1FFFF0
1FFFF0
4FFFE0
E00000
F00000
F00000
F00000
F00000
F00000
F00000
F00000
F00000
F00000
F00000
F00000
F00000
F00000
F00000
F00000
F00000
F00000
E00000
400000
ENDCHAR
STARTCHAR $0047
ENCODING 71
SWIDTH 512 0
DWIDTH 32 0
BBX 24 44 4 0
BITMAP
0FFFE0
1FFFF0
1FFFF0
4FFFE0
E00000
F00000
F00000
F00000
F00000
F00000
F00000
F00000
F00000
F00000
F00000
F00000
F00000
F00000
F00000
E00000
407FE0
00FFF0
00FFF0
407FE4
E0000E
F0000F
F0000F
F0000F
F0000F
F0000F
F0000F
F0000F
F0000F
F0000F
F0000F
F0000F
F0000F
F0000F
F0000F
E0000E
4FFFE4
1FFFF0
1FFFF0
0FFFE0
ENDCHAR
STARTCHAR $0048
ENCODING 72
SWIDTH 512 0
DWIDTH 32 0
BBX 24 44 4 0
BITMAP
400004
E0000E
F0000F
F0000F
F0000F
F0000F
F0000F
F0000F
F0000F
F0000F
F0000F
F0000F
F0000F
F0000F
F0000F
F0000F
F0000F
F0000F
F0000F
E0000E
4FFFE4
1FFFF0
1FFFF0
4FFFE4
E0000E
F0000F
F0000F
F0000F
F0000F
F0000F
F0000F
F0000F
F0000F
F0000F
F0000F
F0000F
F0000F
F0000F
F0000F
F0000F
F0000F
F0000F
E0000E
400004
ENDCHAR
STARTCHAR $0049
ENCODING 73
SWIDTH 192 0
DWIDTH 12 0
BBX 4 44 4 0
BITMAP
40
E0
F0
F0
F0
F0
F0
F0
F0
F0
F0
F0
F0
F0
F0
F0
F0
F0
F0
E0
40
00
00
40
E0
F0
F0
F0
F0
F0
F0
F0
F0
F0
F0
F0
F0
F0
F0
F0
F0
F0
E0
40
ENDCHAR
STARTCHAR $004A
ENCODING 74
SWIDTH 512 0
DWIDTH 32 0
BBX 24 44 4 0
BITMAP
000004
00000E
00000F
00000F
00000F
00000F
00000F
00000F
00000F
00000F
00000F
00000F
00000F
00000F
00000F
00000F
00000F
00000F
00000F
00000E
000004
000000
000000
400004
E0000E
F0000F
F0000F
F0000F
F0000F
F0000F
F0000F
F0000F
F0000F
F0000F
F0000F
F0000F
F0000F
F0000F
F0000F
E0000E
4FFFE4
1FFFF0
1FFFF0
0FFFE0
ENDCHAR
STARTCHAR $004B
ENCODING 75
SWIDTH 512 0
DWIDTH 32 0
BBX 24 44 4 0
BITMAP
40000F
E0001F
F0003F
F0007E
F000FC
F001F8
F003F0
F007E0
F00FC0
F01F80
F03F00
F07E00
F0FC00
F1F800
F3F000
F7E000
F7C000
F78000
F00000
E00000
4FFFE0
1FFFF0
1FFFF0
4FFFE4
E0000E
F0000F
F0000F
F0000F
F0000F
F0000F
F0000F
F0000F
F0000F
F0000F
F0000F
F0000F
F0000F
F0000F
F0000F
F0000F
F0000F
F0000F
E0000E
400004
ENDCHAR
STARTCHAR $004C
ENCODING 76
SWIDTH 464 0
DWIDTH 29 0
BBX 20 44 4 0
BITMAP
400000
E00000
F00000
F00000
F00000
F00000
F00000
F00000
F00000
F00000
F00000
F00000
F00000
F00000
F00000
F00000
F00000
F00000
F00000
E00000
400000
000000
000000
400000
E00000
F00000
F00000
F00000
F00000
F00000
F00000
F00000
F00000
F00000
F00000
F00000
F00000
F00000
F00000
E00000
4FFFE0
1FFFF0
1FFFF0
0FFFE0
ENDCHAR
STARTCHAR $004D
ENCODING 77
SWIDTH 688 0
DWIDTH 43 0
BBX 35 44 4 0
BITMAP
0FFE0FFE00
1FFF1FFF00
1FFF1FFF00
4FFE4FFE40
E000E000E0
F000F001E0
F000F001E0
F000F001E0
F000F001E0
F000F001E0
F000F001E0
F000F001E0
F000F001E0
F000F001E0
F000F001E0
F000F001E0
F000F001E0
F000F001E0
F000F001E0
E000E000E0
4000400040
0000000000
0000000000
4000000040
E0000000E0
F0000001E0
F0000001E0
F0000001E0
F0000001E0
F0000001E0
F0000001E0
F0000001E0
F0000001E0
F0000001E0
F0000001E0
F0000001E0
F0000001E0
F0000001E0
F0000001E0
F0000001E0
F0000001E0
F0000001E0
E0000000E0
4000000040
ENDCHAR
STARTCHAR $004E
ENCODING 78
SWIDTH 512 0
DWIDTH 32 0
BBX 24 44 4 0
BITMAP
0FFFE0
1FFFF0
1FFFF0
4FFFE4
E0000E
F0000F
F0000F
F0000F
F0000F
F0000F
F0000F
F0000F
F0000F
F0000F
F0000F
F0000F
F0000F
F0000F
F0000F
E0000E
400004
000000
000000
400004
E0000E
F0000F
F0000F
F0000F
F0000F
F0000F
F0000F
F0000F
F0000F
F0000F
F0000F
F0000F
F0000F
F0000F
F0000F
F0000F
F0000F
F0000F
E0000E
400004
ENDCHAR
STARTCHAR $004F
ENCODING 79
SWIDTH 512 0
DWIDTH 32 0
BBX 24 44 4 0
BITMAP
0FFFE0
1FFFF0
1FFFF0
4FFFE4
E0000E
F0000F
F0000F
F0000F
F0000F
F0000F
F0000F
F0000F
F0000F
F0000F
F0000F
F0000F
F0000F
F0000F
F0000F
E0000E
400004
000000
000000
400004
E0000E
F0000F
F0000F
F0000F
F0000F
F0000F
F0000F
F0000F
F0000F
F0000F
F0000F
F0000F
F0000F
F0000F
F0000F
E0000E
4FFFE4
1FFFF0
1FFFF0
0FFFE0
ENDCHAR
STARTCHAR $0050
ENCODING 80
SWIDTH 512 0
DWIDTH 32 0
BBX 24 44 4 0
BITMAP
0FFFE0
1FFFF0
1FFFF0
4FFFE4
E0000E
F0000F
F0000F
F0000F
F0000F
F0000F
F0000F
F0000F
F0000F
F0000F
F0000F
F0000F
F0000F
F0000F
F0000F
E0000E
4FFFE4
1FFFF0
1FFFF0
4FFFE0
E00000
F00000
F00000
F00000
F00000
F00000
F00000
F00000
F00000
F00000
F00000
F00000
F00000
F00000
F00000
F00000
F00000
F00000
E00000
400000
ENDCHAR
STARTCHAR $0051
ENCODING 81
SWIDTH 512 0
DWIDTH 32 0
BBX 24 44 4 0
BITMAP
0FFFE0
1FFFF0
1FFFF0
4FFFE4
E0000E
F0000F
F0000F
F0000F
F0000F
F0000F
F0000F
F0000F
F0000F
F0000F
F0000F
F0000F
F0000F
F0000F
F0000F
E0000E
400004
000000
000000
400004
E0000E
F0000F
F0000F
F0000F
F0000F
F0000F
F0000F
F0000F
F0000F
F0000F
F0000F
F00006
F00070
F00078
F0007C
E0003E
4FFF9F
1FFFCF
1FFFC7
0FFF80
ENDCHAR
STARTCHAR $0052
ENCODING 82
SWIDTH 512 0
DWIDTH 32 0
BBX 24 44 4 0
BITMAP
0FFFE0
1FFFF0
1FFFF0
4FFFE4
E0000E
F0000F
F0000F
F0000F
F0000F
F0000F
F0000F
F0000F
F0000F
F0000F
F0000F
F0000F
F0000F
F0000F
F0000F
E0000E
4FFFE4
1FFFF0
1FFFF0
4FFFE0
E00000
F00000
F78000
F7C000
F7E000
F3F000
F1F800
F0FC00
F07E00
F03F00
F01F80
F00FC0
F007E0
F003F0
F001F8
F000FC
F0007E
F0003F
E0001F
400007
ENDCHAR
STARTCHAR $0053
ENCODING 83
SWIDTH 512 0
DWIDTH 32 0
BBX 24 44 4 0
BITMAP
0FFFE0
1FFFF0
1FFFF0
4FFFE0
E00000
F00000
F00000
F00000
F00000
F00000
F00000
F00000
F00000
F00000
F00000
F00000
F00000
F00000
F00000
E00000
4FFFE0
1FFFF0
1FFFF0
0FFFE4
00000E
00000F
00000F
00000F
00000F
00000F
00000F
00000F
00000F
00000F
00000F
00000F
00000F
00000F
00000F
00000E
0FFFE4
1FFFF0
1FFFF0
0FFFE0
ENDCHAR
STARTCHAR $0054
ENCODING 84
SWIDTH 592 0
DWIDTH 37 0
BBX 29 44 4 0
BITMAP
7FF07FF0
FFF8FFF8
FFF8FFF8
7FF27FF0
00070000
000F0000
000F0000
000F0000
000F0000
000F0000
000F0000
000F0000
000F0000
000F0000
000F0000
000F0000
000F0000
000F0000
000F0000
00070000
00020000
00000000
00000000
00020000
00070000
000F0000
000F0000
000F0000
000F0000
000F0000
000F0000
000F0000
000F0000
000F0000
000F0000
000F0000
000F0000
000F0000
000F0000
000F0000
000F0000
000F0000
00070000
00020000
ENDCHAR
STARTCHAR $0055
ENCODING 85
SWIDTH 512 0
DWIDTH 32 0
BBX 24 44 4 0
BITMAP
400004
E0000E
F0000F
F0000F
F0000F
F0000F
F0000F
F0000F
F0000F
F0000F
F0000F
F0000F
F0000F
F0000F
F0000F
F0000F
F0000F
F0000F
F0000F
E0000E
400004
000000
000000
400004
E0000E
F0000F
F0000F
F0000F
F0000F
F0000F
F0000F
F0000F
F0000F
F0000F
F0000F
F0000F
F0000F
F0000F
F0000F
E0000E
4FFFE4
1FFFF0
1FFFF0
0FFFE0
ENDCHAR
STARTCHAR $0056
ENCODING 86
SWIDTH 512 0
DWIDTH 32 0
BBX 24 44 4 0
BITMAP
400004
E0000E
F0000F
F0000F
F0000F
F0000F
F0000F
F0000F
F0000F
F0000F
F0000F
F0000F
F0000F
F0000F
F0000F
F0000F
F0000F
F0000F
F0000F
E0000E
400004
000000
000000
600006
F0000E
F0001F
F8001E
78001E
78003E
7C003C
3C007C
3E0078
1E0078
1E00F8
1F00F0
0F01F0
0F81E0
0781E0
0783E0
07C3C0
03C3C0
03C780
01C380
00C200
ENDCHAR
STARTCHAR $0057
ENCODING 87
SWIDTH 688 0
DWIDTH 43 0
BBX 35 44 4 0
BITMAP
4000000040
E0000000E0
F0000001E0
F0000001E0
F0000001E0
F0000001E0
F0000001E0
F0000001E0
F0000001E0
F0000001E0
F0000001E0
F0000001E0
F0000001E0
F0000001E0
F0000001E0
F0000001E0
F0000001E0
F0000001E0
F0000001E0
E0000000E0
4000000040
0000000000
0000000000
4000400040
E000E000E0
F000F001E0
F000F001E0
F000F001E0
F000F001E0
F000F001E0
F000F001E0
F000F001E0
F000F001E0
F000F001E0
F000F001E0
F000F001E0
F000F001E0
F000F001E0
F000F001E0
E000E000E0
4FFE4FFE40
1FFF1FFF00
1FFF1FFF00
0FFE0FFE00
ENDCHAR
STARTCHAR $0058
ENCODING 88
SWIDTH 512 0
DWIDTH 32 0
BBX 24 44 4 0
BITMAP
400002
F0000E
F0000F
F0001E
78001E
78003E
7C003C
3C003C
3C007C
1E0078
1E00F8
1F00F0
0F00F0
0F01F0
0F81E0
0783E0
07C3C0
03C3C0
03C7C0
03C380
00C300
000000
000000
00C300
03C380
03C7C0
03C3C0
07C3C0
0783E0
0F81E0
0F01F0
0F00F0
1F00F0
1E00F8
1E0078
3C007C
3C003C
7C003C
78003E
78001E
F0001E
F0000F
F0000E
400002
ENDCHAR
STARTCHAR $0059
ENCODING 89
SWIDTH 512 0
DWIDTH 32 0
BBX 24 44 4 0
BITMAP
400004
E0000E
F0000F
F0000F
F0000F
F0000F
F0000F
F0000F
F0000F
F0000F
F0000F
F0000F
F0000F
F0000F
F0000F
F0000F
F0000F
F0000F
F0000F
E0000E
4FFFE4
1FFFF0
1FFFF0
0FFFE4
00000E
00000F
00000F
00000F
00000F
00000F
00000F
00000F
00000F
00000F
00000F
00000F
00000F
00000F
00000F
00000E
0FFFE4
1FFFF0
1FFFF0
0FFFE0
ENDCHAR
STARTCHAR $005A
ENCODING 90
SWIDTH 512 0
DWIDTH 32 0
BBX 23 44 4 0
BITMAP
7FFFE0
FFFFF0
FFFFF0
7FFFE0
000004
00001C
00003E
00003C
00007C
000078
0000F8
0001F0
0001E0
0003E0
0003C0
0007C0
000F80
000F80
001F00
000E00
000C00
000000
000000
006000
00F000
01F000
01E000
03E000
03C000
07C000
0F8000
0F0000
1F0000
1E0000
3E0000
7C0000
7C0000
780000
700000
400000
07FFFC
0FFFFE
0FFFFE
07FFFC
ENDCHAR
STARTCHAR $005B
ENCODING 91
SWIDTH 384 0
DWIDTH 24 0
BBX 16 44 4 0
BITMAP
7FFE
BFFF
9FFF
CFFE
E000
F000
F000
F000
F000
F000
F000
F000
F000
F000
F000
F000
F000
F000
F000
E000
4000
0000
0000
4000
E000
F000
F000
F000
F000
F000
F000
F000
F000
F000
F000
F000
F000
F000
F000
E000
CFFE
9FFF
BFFF
7FFE
ENDCHAR
STARTCHAR $005C
ENCODING 92
SWIDTH 544 0
DWIDTH 34 0
BBX 26 43 4 0
BITMAP
E0000000
F0000000
F8000000
F8000000
7C000000
3C000000
3E000000
1E000000
1F000000
0F800000
07800000
07C00000
03C00000
03E00000
01E00000
01F00000
00F80000
00780000
00780000
00380000
00000000
00000000
00060000
00078000
00078000
0007C000
0003C000
0003E000
0001F000
0000F000
0000F800
00007800
00007C00
00003C00
00003E00
00001F00
00000F00
00000F80
00000780
000007C0
000003C0
000003C0
000000C0
ENDCHAR
STARTCHAR $005D
ENCODING 93
SWIDTH 384 0
DWIDTH 24 0
BBX 16 44 4 0
BITMAP
7FFE
FFFD
FFF9
7FF3
0007
000F
000F
000F
000F
000F
000F
000F
000F
000F
000F
000F
000F
000F
000F
0007
0002
0000
0000
0002
0007
000F
000F
000F
000F
000F
000F
000F
000F
000F
000F
000F
000F
000F
000F
0007
7FF3
FFF9
FFFD
7FFE
ENDCHAR
STARTCHAR $005E
ENCODING 94
SWIDTH 832 0
DWIDTH 52 0
BBX 44 11 4 19
BITMAP
000070C00000
0001F9F80000
000FF9FE0000
003FF0FFC000
01FFC07FF000
07FF000FFE00
3FFC0003FF80
7FE000007FE0
FF8000001FE0
FC00000003F0
7000000000C0
ENDCHAR
STARTCHAR $005F
ENCODING 95
SWIDTH 624 0
DWIDTH 39 0
BBX 31 4 4 0
BITMAP
7FFFFFFC
FFFFFFFE
FFFFFFFE
7FFFFFFC
ENDCHAR
STARTCHAR $0061
ENCODING 97
SWIDTH 512 0
DWIDTH 32 0
BBX 24 44 4 0
BITMAP
0FFFE0
1FFFF0
1FFFF0
4FFFE4
E0000E
F0000F
F0000F
F0000F
F0000F
F0000F
F0000F
F0000F
F0000F
F0000F
F0000F
F0000F
F0000F
F0000F
F0000F
E0000E
4FFFE4
1FFFF0
1FFFF0
4FFFE4
E0000E
F0000F
F0000F
F0000F
F0000F
F0000F
F0000F
F0000F
F0000F
F0000F
F0000F
F0000F
F0000F
F0000F
F0000F
F0000F
F0000F
F0000F
E0000E
400004
ENDCHAR
STARTCHAR $0062
ENCODING 98
SWIDTH 512 0
DWIDTH 32 0
BBX 24 44 4 0
BITMAP
7FFFE0
BFFFF0
9FFFF0
CFFFE4
E0000E
F0000F
F0000F
F0000F
F0000F
F0000F
F0000F
F0000F
F0000F
F0000F
F0000F
F0000F
F0000F
F0000F
F0000F
E0000E
4FFFE4
1FFFF0
1FFFF0
4FFFE4
E0000E
F0000F
F0000F
F0000F
F0000F
F0000F
F0000F
F0000F
F0000F
F0000F
F0000F
F0000F
F0000F
F0000F
F0000F
E0000E
CFFFE4
9FFFF0
BFFFF0
7FFFE0
ENDCHAR
STARTCHAR $0063
ENCODING 99
SWIDTH 464 0
DWIDTH 29 0
BBX 20 44 4 0
BITMAP
0FFFE0
1FFFF0
1FFFF0
4FFFE0
E00000
F00000
F00000
F00000
F00000
F00000
F00000
F00000
F00000
F00000
F00000
F00000
F00000
F00000
F00000
E00000
400000
000000
000000
400000
E00000
F00000
F00000
F00000
F00000
F00000
F00000
F00000
F00000
F00000
F00000
F00000
F00000
F00000
F00000
E00000
4FFFE0
1FFFF0
1FFFF0
0FFFE0
ENDCHAR
STARTCHAR $0064
ENCODING 100
SWIDTH 512 0
DWIDTH 32 0
BBX 24 44 4 0
BITMAP
7FFFE0
BFFFF0
9FFFF0
CFFFE4
E0000E
F0000F
F0000F
F0000F
F0000F
F0000F
F0000F
F0000F
F0000F
F0000F
F0000F
F0000F
F0000F
F0000F
F0000F
E0000E
400004
000000
000000
400004
E0000E
F0000F
F0000F
F0000F
F0000F
F0000F
F0000F
F0000F
F0000F
F0000F
F0000F
F0000F
F0000F
F0000F
F0000F
E0000E
CFFFE4
9FFFF0
BFFFF0
7FFFE0
ENDCHAR
STARTCHAR $0065
ENCODING 101
SWIDTH 464 0
DWIDTH 29 0
BBX 20 44 4 0
BITMAP
0FFFE0
1FFFF0
1FFFF0
4FFFE0
E00000
F00000
F00000
F00000
F00000
F00000
F00000
F00000
F00000
F00000
F00000
F00000
F00000
F00000
F00000
E00000
4FFFE0
1FFFF0
1FFFF0
4FFFE0
E00000
F00000
F00000
F00000
F00000
F00000
F00000
F00000
F00000
F00000
F00000
F00000
F00000
F00000
F00000
E00000
4FFFE0
1FFFF0
1FFFF0
0FFFE0
ENDCHAR
STARTCHAR $0066
ENCODING 102
SWIDTH 464 0
DWIDTH 29 0
BBX 20 44 4 0
BITMAP
0FFFE0
1FFFF0
1FFFF0
4FFFE0
E00000
F00000
F00000
F00000
F00000
F00000
F00000
F00000
F00000
F00000
F00000
F00000
F00000
F00000
F00000
E00000
4FFFE0
1FFFF0
1FFFF0
4FFFE0
E00000
F00000
F00000
F00000
F00000
F00000
F00000
F00000
F00000
F00000
F00000
F00000
F00000
F00000
F00000
F00000
F00000
F00000
E00000
400000
ENDCHAR
STARTCHAR $0067
ENCODING 103
SWIDTH 512 0
DWIDTH 32 0
BBX 24 44 4 0
BITMAP
0FFFE0
1FFFF0
1FFFF0
4FFFE0
E00000
F00000
F00000
F00000
F00000
F00000
F00000
F00000
F00000
F00000
F00000
F00000
F00000
F00000
F00000
E00000
407FE0
00FFF0
00FFF0
407FE4
E0000E
F0000F
F0000F
F0000F
F0000F
F0000F
F0000F
F0000F
F0000F
F0000F
F0000F
F0000F
F0000F
F0000F
F0000F
E0000E
4FFFE4
1FFFF0
1FFFF0
0FFFE0
ENDCHAR
STARTCHAR $0068
ENCODING 104
SWIDTH 512 0
DWIDTH 32 0
BBX 24 44 4 0
BITMAP
400004
E0000E
F0000F
F0000F
F0000F
F0000F
F0000F
F0000F
F0000F
F0000F
F0000F
F0000F
F0000F
F0000F
F0000F
F0000F
F0000F
F0000F
F0000F
E0000E
4FFFE4
1FFFF0
1FFFF0
4FFFE4
E0000E
F0000F
F0000F
F0000F
F0000F
F0000F
F0000F
F0000F
F0000F
F0000F
F0000F
F0000F
F0000F
F0000F
F0000F
F0000F
F0000F
F0000F
E0000E
400004
ENDCHAR
STARTCHAR $0069
ENCODING 105
SWIDTH 192 0
DWIDTH 12 0
BBX 4 44 4 0
BITMAP
40
E0
F0
F0
F0
F0
F0
F0
F0
F0
F0
F0
F0
F0
F0
F0
F0
F0
F0
E0
40
00
00
40
E0
F0
F0
F0
F0
F0
F0
F0
F0
F0
F0
F0
F0
F0
F0
F0
F0
F0
E0
40
ENDCHAR
STARTCHAR $006A
ENCODING 106
SWIDTH 512 0
DWIDTH 32 0
BBX 24 44 4 0
BITMAP
000004
00000E
00000F
00000F
00000F
00000F
00000F
00000F
00000F
00000F
00000F
00000F
00000F
00000F
00000F
00000F
00000F
00000F
00000F
00000E
000004
000000
000000
400004
E0000E
F0000F
F0000F
F0000F
F0000F
F0000F
F0000F
F0000F
F0000F
F0000F
F0000F
F0000F
F0000F
F0000F
F0000F
E0000E
4FFFE4
1FFFF0
1FFFF0
0FFFE0
ENDCHAR
STARTCHAR $006B
ENCODING 107
SWIDTH 512 0
DWIDTH 32 0
BBX 24 44 4 0
BITMAP
40000F
E0001F
F0003F
F0007E
F000FC
F001F8
F003F0
F007E0
F00FC0
F01F80
F03F00
F07E00
F0FC00
F1F800
F3F000
F7E000
F7C000
F78000
F00000
E00000
4FFFE0
1FFFF0
1FFFF0
4FFFE4
E0000E
F0000F
F0000F
F0000F
F0000F
F0000F
F0000F
F0000F
F0000F
F0000F
F0000F
F0000F
F0000F
F0000F
F0000F
F0000F
F0000F
F0000F
E0000E
400004
ENDCHAR
STARTCHAR $006C
ENCODING 108
SWIDTH 464 0
DWIDTH 29 0
BBX 20 44 4 0
BITMAP
400000
E00000
F00000
F00000
F00000
F00000
F00000
F00000
F00000
F00000
F00000
F00000
F00000
F00000
F00000
F00000
F00000
F00000
F00000
E00000
400000
000000
000000
400000
E00000
F00000
F00000
F00000
F00000
F00000
F00000
F00000
F00000
F00000
F00000
F00000
F00000
F00000
F00000
E00000
4FFFE0
1FFFF0
1FFFF0
0FFFE0
ENDCHAR
STARTCHAR $006D
ENCODING 109
SWIDTH 688 0
DWIDTH 43 0
BBX 35 44 4 0
BITMAP
0FFE0FFE00
1FFF1FFF00
1FFF1FFF00
4FFE4FFE40
E000E000E0
F000F001E0
F000F001E0
F000F001E0
F000F001E0
F000F001E0
F000F001E0
F000F001E0
F000F001E0
F000F001E0
F000F001E0
F000F001E0
F000F001E0
F000F001E0
F000F001E0
E000E000E0
4000400040
0000000000
0000000000
4000000040
E0000000E0
F0000001E0
F0000001E0
F0000001E0
F0000001E0
F0000001E0
F0000001E0
F0000001E0
F0000001E0
F0000001E0
F0000001E0
F0000001E0
F0000001E0
F0000001E0
F0000001E0
F0000001E0
F0000001E0
F0000001E0
E0000000E0
4000000040
ENDCHAR
STARTCHAR $006E
ENCODING 110
SWIDTH 512 0
DWIDTH 32 0
BBX 24 44 4 0
BITMAP
0FFFE0
1FFFF0
1FFFF0
4FFFE4
E0000E
F0000F
F0000F
F0000F
F0000F
F0000F
F0000F
F0000F
F0000F
F0000F
F0000F
F0000F
F0000F
F0000F
F0000F
E0000E
400004
000000
000000
400004
E0000E
F0000F
F0000F
F0000F
F0000F
F0000F
F0000F
F0000F
F0000F
F0000F
F0000F
F0000F
F0000F
F0000F
F0000F
F0000F
F0000F
F0000F
E0000E
400004
ENDCHAR
STARTCHAR $006F
ENCODING 111
SWIDTH 512 0
DWIDTH 32 0
BBX 24 44 4 0
BITMAP
0FFFE0
1FFFF0
1FFFF0
4FFFE4
E0000E
F0000F
F0000F
F0000F
F0000F
F0000F
F0000F
F0000F
F0000F
F0000F
F0000F
F0000F
F0000F
F0000F
F0000F
E0000E
400004
000000
000000
400004
E0000E
F0000F
F0000F
F0000F
F0000F
F0000F
F0000F
F0000F
F0000F
F0000F
F0000F
F0000F
F0000F
F0000F
F0000F
E0000E
4FFFE4
1FFFF0
1FFFF0
0FFFE0
ENDCHAR
STARTCHAR $0070
ENCODING 112
SWIDTH 512 0
DWIDTH 32 0
BBX 24 44 4 0
BITMAP
0FFFE0
1FFFF0
1FFFF0
4FFFE4
E0000E
F0000F
F0000F
F0000F
F0000F
F0000F
F0000F
F0000F
F0000F
F0000F
F0000F
F0000F
F0000F
F0000F
F0000F
E0000E
4FFFE4
1FFFF0
1FFFF0
4FFFE0
E00000
F00000
F00000
F00000
F00000
F00000
F00000
F00000
F00000
F00000
F00000
F00000
F00000
F00000
F00000
F00000
F00000
F00000
E00000
400000
ENDCHAR
STARTCHAR $0071
ENCODING 113
SWIDTH 512 0
DWIDTH 32 0
BBX 24 44 4 0
BITMAP
0FFFE0
1FFFF0
1FFFF0
4FFFE4
E0000E
F0000F
F0000F
F0000F
F0000F
F0000F
F0000F
F0000F
F0000F
F0000F
F0000F
F0000F
F0000F
F0000F
F0000F
E0000E
400004
000000
000000
400004
E0000E
F0000F
F0000F
F0000F
F0000F
F0000F
F0000F
F0000F
F0000F
F0000F
F0000F
F00006
F00070
F00078
F0007C
E0003E
4FFF9F
1FFFCF
1FFFC7
0FFF80
ENDCHAR
STARTCHAR $0072
ENCODING 114
SWIDTH 512 0
DWIDTH 32 0
BBX 24 44 4 0
BITMAP
0FFFE0
1FFFF0
1FFFF0
4FFFE4
E0000E
F0000F
F0000F
F0000F
F0000F
F0000F
F0000F
F0000F
F0000F
F0000F
F0000F
F0000F
F0000F
F0000F
F0000F
E0000E
4FFFE4
1FFFF0
1FFFF0
4FFFE0
E00000
F00000
F78000
F7C000
F7E000
F3F000
F1F800
F0FC00
F07E00
F03F00
F01F80
F00FC0
F007E0
F003F0
F001F8
F000FC
F0007E
F0003F
E0001F
400007
ENDCHAR
STARTCHAR $0073
ENCODING 115
SWIDTH 512 0
DWIDTH 32 0
BBX 24 44 4 0
BITMAP
0FFFE0
1FFFF0
1FFFF0
4FFFE0
E00000
F00000
F00000
F00000
F00000
F00000
F00000
F00000
F00000
F00000
F00000
F00000
F00000
F00000
F00000
E00000
4FFFE0
1FFFF0
1FFFF0
0FFFE4
00000E
00000F
00000F
00000F
00000F
00000F
00000F
00000F
00000F
00000F
00000F
00000F
00000F
00000F
00000F
00000E
0FFFE4
1FFFF0
1FFFF0
0FFFE0
ENDCHAR
STARTCHAR $0074
ENCODING 116
SWIDTH 592 0
DWIDTH 37 0
BBX 29 44 4 0
BITMAP
7FF07FF0
FFF8FFF8
FFF8FFF8
7FF27FF0
00070000
000F0000
000F0000
000F0000
000F0000
000F0000
000F0000
000F0000
000F0000
000F0000
000F0000
000F0000
000F0000
000F0000
000F0000
00070000
00020000
00000000
00000000
00020000
00070000
000F0000
000F0000
000F0000
000F0000
000F0000
000F0000
000F0000
000F0000
000F0000
000F0000
000F0000
000F0000
000F0000
000F0000
000F0000
000F0000
000F0000
00070000
00020000
ENDCHAR
STARTCHAR $0075
ENCODING 117
SWIDTH 512 0
DWIDTH 32 0
BBX 24 44 4 0
BITMAP
400004
E0000E
F0000F
F0000F
F0000F
F0000F
F0000F
F0000F
F0000F
F0000F
F0000F
F0000F
F0000F
F0000F
F0000F
F0000F
F0000F
F0000F
F0000F
E0000E
400004
000000
000000
400004
E0000E
F0000F
F0000F
F0000F
F0000F
F0000F
F0000F
F0000F
F0000F
F0000F
F0000F
F0000F
F0000F
F0000F
F0000F
E0000E
4FFFE4
1FFFF0
1FFFF0
0FFFE0
ENDCHAR
STARTCHAR $0076
ENCODING 118
SWIDTH 512 0
DWIDTH 32 0
BBX 24 44 4 0
BITMAP
400004
E0000E
F0000F
F0000F
F0000F
F0000F
F0000F
F0000F
F0000F
F0000F
F0000F
F0000F
F0000F
F0000F
F0000F
F0000F
F0000F
F0000F
F0000F
E0000E
400004
000000
000000
600006
F0000E
F0001F
F8001E
78001E
78003E
7C003C
3C007C
3E0078
1E0078
1E00F8
1F00F0
0F01F0
0F81E0
0781E0
0783E0
07C3C0
03C3C0
03C780
01C380
00C200
ENDCHAR
STARTCHAR $0077
ENCODING 119
SWIDTH 688 0
DWIDTH 43 0
BBX 35 44 4 0
BITMAP
4000000040
E0000000E0
F0000001E0
F0000001E0
F0000001E0
F0000001E0
F0000001E0
F0000001E0
F0000001E0
F0000001E0
F0000001E0
F0000001E0
F0000001E0
F0000001E0
F0000001E0
F0000001E0
F0000001E0
F0000001E0
F0000001E0
E0000000E0
4000000040
0000000000
0000000000
4000400040
E000E000E0
F000F001E0
F000F001E0
F000F001E0
F000F001E0
F000F001E0
F000F001E0
F000F001E0
F000F001E0
F000F001E0
F000F001E0
F000F001E0
F000F001E0
F000F001E0
F000F001E0
E000E000E0
4FFE4FFE40
1FFF1FFF00
1FFF1FFF00
0FFE0FFE00
ENDCHAR
STARTCHAR $0078
ENCODING 120
SWIDTH 512 0
DWIDTH 32 0
BBX 24 44 4 0
BITMAP
400002
F0000E
F0000F
F0001E
78001E
78003E
7C003C
3C003C
3C007C
1E0078
1E00F8
1F00F0
0F00F0
0F01F0
0F81E0
0783E0
07C3C0
03C3C0
03C7C0
03C380
00C300
000000
000000
00C300
03C380
03C7C0
03C3C0
07C3C0
0783E0
0F81E0
0F01F0
0F00F0
1F00F0
1E00F8
1E0078
3C007C
3C003C
7C003C
78003E
78001E
F0001E
F0000F
F0000E
400002
ENDCHAR
STARTCHAR $0079
ENCODING 121
SWIDTH 512 0
DWIDTH 32 0
BBX 24 44 4 0
BITMAP
400004
E0000E
F0000F
F0000F
F0000F
F0000F
F0000F
F0000F
F0000F
F0000F
F0000F
F0000F
F0000F
F0000F
F0000F
F0000F
F0000F
F0000F
F0000F
E0000E
4FFFE4
1FFFF0
1FFFF0
0FFFE4
00000E
00000F
00000F
00000F
00000F
00000F
00000F
00000F
00000F
00000F
00000F
00000F
00000F
00000F
00000F
00000E
0FFFE4
1FFFF0
1FFFF0
0FFFE0
ENDCHAR
STARTCHAR $007A
ENCODING 122
SWIDTH 512 0
DWIDTH 32 0
BBX 23 44 4 0
BITMAP
7FFFE0
FFFFF0
FFFFF0
7FFFE0
000004
00001C
00003E
00003C
00007C
000078
0000F8
0001F0
0001E0
0003E0
0003C0
0007C0
000F80
000F80
001F00
000E00
000C00
000000
000000
006000
00F000
01F000
01E000
03E000
03C000
07C000
0F8000
0F0000
1F0000
1E0000
3E0000
7C0000
7C0000
780000
700000
400000
07FFFC
0FFFFE
0FFFFE
07FFFC
ENDCHAR
STARTCHAR $007B
ENCODING 123
SWIDTH 480 0
DWIDTH 30 0
BBX 22 44 4 0
BITMAP
001FF8
003FFC
003FFC
009FF8
01C000
03C000
03C000
03C000
03C000
03C000
03C000
03C000
03C000
03C000
03C000
03C000
03C000
03C000
03C000
01C000
788000
FC0000
FC0000
788000
01C000
03C000
03C000
03C000
03C000
03C000
03C000
03C000
03C000
03C000
03C000
03C000
03C000
03C000
03C000
01C000
009FF8
003FFC
003FFC
001FF8
ENDCHAR
STARTCHAR $007C
ENCODING 124
SWIDTH 192 0
DWIDTH 12 0
BBX 4 49 4 0
BITMAP
40
E0
F0
F0
F0
F0
F0
F0
F0
F0
F0
F0
F0
F0
F0
F0
F0
F0
F0
F0
F0
F0
F0
F0
F0
F0
F0
F0
F0
F0
F0
F0
F0
F0
F0
F0
F0
F0
F0
F0
F0
F0
F0
F0
F0
F0
F0
E0
40
ENDCHAR
STARTCHAR $007D
ENCODING 125
SWIDTH 480 0
DWIDTH 30 0
BBX 22 44 4 0
BITMAP
7FF000
FFF800
FFF800
7FF200
000700
000F00
000F00
000F00
000F00
000F00
000F00
000F00
000F00
000F00
000F00
000F00
000F00
000F00
000F00
000700
000278
0000FC
0000FC
000278
000700
000F00
000F00
000F00
000F00
000F00
000F00
000F00
000F00
000F00
000F00
000F00
000F00
000F00
000F00
000700
7FF200
FFF800
FFF800
7FF000
ENDCHAR
STARTCHAR $00A0
ENCODING 160
SWIDTH 720 0
DWIDTH 45 0
BBX 0 0 0 0
BITMAP
ENDCHAR
STARTCHAR $00A9
ENCODING 169
SWIDTH 512 0
DWIDTH 32 0
BBX 24 27 4 0
BITMAP
0FFFE0
1FFFF0
1FFFF0
4FFFE4
E0000E
F0000F
F0000F
F0000F
F07F0F
F07F0F
F1800F
F1800F
F1800F
F1800F
F1800F
F1800F
F1800F
F07F0F
F07F0F
F0000F
F0000F
F0000F
E0000E
4FFFE4
1FFFF0
1FFFF0
0FFFE0
ENDCHAR
STARTCHAR $00AB
ENCODING 171
SWIDTH 448 0
DWIDTH 28 0
BBX 20 44 4 0
BITMAP
00C030
01C070
03C0F0
03C0F0
07C1F0
0781E0
0781E0
0F83E0
0F03C0
1F07C0
1E0780
1E0780
3E0F80
3C0F00
7C1F00
781E00
781E00
F83E00
F03C00
F03C00
601800
000000
000000
601800
F03C00
F03C00
F83E00
781E00
781E00
7C1F00
3C0F00
3E0F80
1E0780
1E0780
1F07C0
0F03C0
0F83E0
0781E0
0781E0
07C1F0
03C0F0
03C0F0
01C070
00C030
ENDCHAR
STARTCHAR $00AD
ENCODING 173
SWIDTH 0 0
DWIDTH 0 0
BBX 0 0 0 0
BITMAP
ENDCHAR
STARTCHAR $00BB
ENCODING 187
SWIDTH 448 0
DWIDTH 28 0
BBX 20 44 4 0
BITMAP
401000
F03C00
F03C00
F03E00
781E00
781E00
7C1F00
3C0F00
3C0F00
1E0780
1E0780
1F07C0
0F03C0
0F03C0
0F81E0
0781E0
07C1F0
03C0F0
03C0F0
03C070
00C030
000000
000000
00C030
03C070
03C0F0
03C0F0
07C1F0
0781E0
0F81E0
0F03C0
0F03C0
1F07C0
1E0780
1E0780
3C0F00
3C0F00
7C1F00
781E00
781E00
F03E00
F03C00
F03C00
401000
ENDCHAR
STARTCHAR $00C0
ENCODING 192
SWIDTH 512 0
DWIDTH 32 0
BBX 24 44 4 0
BITMAP
0FFFE0
1FFFF0
1FFFF0
4FFFE4
E0000E
F0000F
F0000F
F0000F
F0000F
F0000F
F0000F
F0000F
F0000F
F0000F
F0000F
F0000F
F0000F
F0000F
F0000F
E0000E
4FFFE4
1FFFF0
1FFFF0
4FFFE4
E0000E
F0000F
F0000F
F0000F
F0000F
F0000F
F0000F
F0000F
F0000F
F0000F
F0000F
F0000F
F0000F
F0000F
F0000F
F0000F
F0000F
F0000F
E0000E
400004
ENDCHAR
STARTCHAR $00C1
ENCODING 193
SWIDTH 512 0
DWIDTH 32 0
BBX 24 54 4 0
BITMAP
0003C0
0007C0
000FC0
001F80
003F00
003E00
003C00
003800
000000
000000
0FFFE0
1FFFF0
1FFFF0
4FFFE4
E0000E
F0000F
F0000F
F0000F
F0000F
F0000F
F0000F
F0000F
F0000F
F0000F
F0000F
F0000F
F0000F
F0000F
F0000F
E0000E
4FFFE4
1FFFF0
1FFFF0
4FFFE4
E0000E
F0000F
F0000F
F0000F
F0000F
F0000F
F0000F
F0000F
F0000F
F0000F
F0000F
F0000F
F0000F
F0000F
F0000F
F0000F
F0000F
F0000F
E0000E
400004
ENDCHAR
STARTCHAR $00C2
ENCODING 194
SWIDTH 512 0
DWIDTH 32 0
BBX 24 44 4 0
BITMAP
0FFFE0
1FFFF0
1FFFF0
4FFFE4
E0000E
F0000F
F0000F
F0000F
F0000F
F0000F
F0000F
F0000F
F0000F
F0000F
F0000F
F0000F
F0000F
F0000F
F0000F
E0000E
4FFFE4
1FFFF0
1FFFF0
4FFFE4
E0000E
F0000F
F0000F
F0000F
F0000F
F0000F
F0000F
F0000F
F0000F
F0000F
F0000F
F0000F
F0000F
F0000F
F0000F
F0000F
F0000F
F0000F
E0000E
400004
ENDCHAR
STARTCHAR $00C3
ENCODING 195
SWIDTH 512 0
DWIDTH 32 0
BBX 24 44 4 0
BITMAP
0FFFE0
1FFFF0
1FFFF0
4FFFE4
E0000E
F0000F
F0000F
F0000F
F0000F
F0000F
F0000F
F0000F
F0000F
F0000F
F0000F
F0000F
F0000F
F0000F
F0000F
E0000E
4FFFE4
1FFFF0
1FFFF0
4FFFE4
E0000E
F0000F
F0000F
F0000F
F0000F
F0000F
F0000F
F0000F
F0000F
F0000F
F0000F
F0000F
F0000F
F0000F
F0000F
F0000F
F0000F
F0000F
E0000E
400004
ENDCHAR
STARTCHAR $00C4
ENCODING 196
SWIDTH 512 0
DWIDTH 32 0
BBX 24 52 4 0
BITMAP
0300C0
0781E0
0781E0
0781E0
0701C0
020080
000000
000000
0FFFE0
1FFFF0
1FFFF0
4FFFE4
E0000E
F0000F
F0000F
F0000F
F0000F
F0000F
F0000F
F0000F
F0000F
F0000F
F0000F
F0000F
F0000F
F0000F
F0000F
E0000E
4FFFE4
1FFFF0
1FFFF0
4FFFE4
E0000E
F0000F
F0000F
F0000F
F0000F
F0000F
F0000F
F0000F
F0000F
F0000F
F0000F
F0000F
F0000F
F0000F
F0000F
F0000F
F0000F
F0000F
E0000E
400004
ENDCHAR
STARTCHAR $00C7
ENCODING 199
SWIDTH 464 0
DWIDTH 29 0
BBX 20 52 4 -8
BITMAP
0FFFE0
1FFFF0
1FFFF0
4FFFE0
E00000
F00000
F00000
F00000
F00000
F00000
F00000
F00000
F00000
F00000
F00000
F00000
F00000
F00000
F00000
E00000
400000
000000
000000
400000
E00000
F00000
F00000
F00000
F00000
F00000
F00000
F00000
F00000
F00000
F00000
F00000
F00000
F00000
F00000
E00000
4FFFE0
1FFFF0
1FFFF0
0FFFE0
000000
000000
002000
007000
00F000
00F000
007000
002000
ENDCHAR
STARTCHAR $00C8
ENCODING 200
SWIDTH 464 0
DWIDTH 29 0
BBX 20 44 4 0
BITMAP
0FFFE0
1FFFF0
1FFFF0
4FFFE0
E00000
F00000
F00000
F00000
F00000
F00000
F00000
F00000
F00000
F00000
F00000
F00000
F00000
F00000
F00000
E00000
4FFFE0
1FFFF0
1FFFF0
4FFFE0
E00000
F00000
F00000
F00000
F00000
F00000
F00000
F00000
F00000
F00000
F00000
F00000
F00000
F00000
F00000
E00000
4FFFE0
1FFFF0
1FFFF0
0FFFE0
ENDCHAR
STARTCHAR $00C9
ENCODING 201
SWIDTH 464 0
DWIDTH 29 0
BBX 20 54 4 0
BITMAP
000780
000F80
001F80
003F00
007E00
00FC00
00F800
00F000
000000
000000
0FFFE0
1FFFF0
1FFFF0
4FFFE0
E00000
F00000
F00000
F00000
F00000
F00000
F00000
F00000
F00000
F00000
F00000
F00000
F00000
F00000
F00000
E00000
4FFFE0
1FFFF0
1FFFF0
4FFFE0
E00000
F00000
F00000
F00000
F00000
F00000
F00000
F00000
F00000
F00000
F00000
F00000
F00000
F00000
F00000
E00000
4FFFE0
1FFFF0
1FFFF0
0FFFE0
ENDCHAR
STARTCHAR $00CB
ENCODING 203
SWIDTH 464 0
DWIDTH 29 0
BBX 20 52 4 0
BITMAP
0C0300
1E0780
1E0780
1E0780
0E0380
040100
000000
000000
0FFFE0
1FFFF0
1FFFF0
4FFFE0
E00000
F00000
F00000
F00000
F00000
F00000
F00000
F00000
F00000
F00000
F00000
F00000
F00000
F00000
F00000
E00000
4FFFE0
1FFFF0
1FFFF0
4FFFE0
E00000
F00000
F00000
F00000
F00000
F00000
F00000
F00000
F00000
F00000
F00000
F00000
F00000
F00000
F00000
E00000
4FFFE0
1FFFF0
1FFFF0
0FFFE0
ENDCHAR
STARTCHAR $00CC
ENCODING 204
SWIDTH 192 0
DWIDTH 12 0
BBX 4 44 4 0
BITMAP
40
E0
F0
F0
F0
F0
F0
F0
F0
F0
F0
F0
F0
F0
F0
F0
F0
F0
F0
E0
40
00
00
40
E0
F0
F0
F0
F0
F0
F0
F0
F0
F0
F0
F0
F0
F0
F0
F0
F0
F0
E0
40
ENDCHAR
STARTCHAR $00CD
ENCODING 205
SWIDTH 192 0
DWIDTH 12 0
BBX 4 44 4 0
BITMAP
40
E0
F0
F0
F0
F0
F0
F0
F0
F0
F0
F0
F0
F0
F0
F0
F0
F0
F0
E0
40
00
00
40
E0
F0
F0
F0
F0
F0
F0
F0
F0
F0
F0
F0
F0
F0
F0
F0
F0
F0
E0
40
ENDCHAR
STARTCHAR $00CE
ENCODING 206
SWIDTH 192 0
DWIDTH 12 0
BBX 4 44 4 0
BITMAP
40
E0
F0
F0
F0
F0
F0
F0
F0
F0
F0
F0
F0
F0
F0
F0
F0
F0
F0
E0
40
00
00
40
E0
F0
F0
F0
F0
F0
F0
F0
F0
F0
F0
F0
F0
F0
F0
F0
F0
F0
E0
40
ENDCHAR
STARTCHAR $00D2
ENCODING 210
SWIDTH 512 0
DWIDTH 32 0
BBX 24 54 4 0
BITMAP
000F00
001F00
003F00
007E00
00FC00
00F800
00F000
00E000
000000
000000
0FFFE0
1FFFF0
1FFFF0
4FFFE4
E0000E
F0000F
F0000F
F0000F
F0000F
F0000F
F0000F
F0000F
F0000F
F0000F
F0000F
F0000F
F0000F
F0000F
F0000F
E0000E
400004
000000
000000
400004
E0000E
F0000F
F0000F
F0000F
F0000F
F0000F
F0000F
F0000F
F0000F
F0000F
F0000F
F0000F
F0000F
F0000F
F0000F
E0000E
4FFFE4
1FFFF0
1FFFF0
0FFFE0
ENDCHAR
STARTCHAR $00D3
ENCODING 211
SWIDTH 512 0
DWIDTH 32 0
BBX 24 44 4 0
BITMAP
0FFFE0
1FFFF0
1FFFF0
4FFFE4
E0000E
F0000F
F0000F
F0000F
F0000F
F0000F
F0000F
F0000F
F0000F
F0000F
F0000F
F0000F
F0000F
F0000F
F0000F
E0000E
400004
000000
000000
400004
E0000E
F0000F
F0000F
F0000F
F0000F
F0000F
F0000F
F0000F
F0000F
F0000F
F0000F
F0000F
F0000F
F0000F
F0000F
E0000E
4FFFE4
1FFFF0
1FFFF0
0FFFE0
ENDCHAR
STARTCHAR $00D4
ENCODING 212
SWIDTH 512 0
DWIDTH 32 0
BBX 24 44 4 0
BITMAP
0FFFE0
1FFFF0
1FFFF0
4FFFE4
E0000E
F0000F
F0000F
F0000F
F0000F
F0000F
F0000F
F0000F
F0000F
F0000F
F0000F
F0000F
F0000F
F0000F
F0000F
E0000E
400004
000000
000000
400004
E0000E
F0000F
F0000F
F0000F
F0000F
F0000F
F0000F
F0000F
F0000F
F0000F
F0000F
F0000F
F0000F
F0000F
F0000F
E0000E
4FFFE4
1FFFF0
1FFFF0
0FFFE0
ENDCHAR
STARTCHAR $00D5
ENCODING 213
SWIDTH 512 0
DWIDTH 32 0
BBX 24 44 4 0
BITMAP
0FFFE0
1FFFF0
1FFFF0
4FFFE4
E0000E
F0000F
F0000F
F0000F
F0000F
F0000F
F0000F
F0000F
F0000F
F0000F
F0000F
F0000F
F0000F
F0000F
F0000F
E0000E
400004
000000
000000
400004
E0000E
F0000F
F0000F
F0000F
F0000F
F0000F
F0000F
F0000F
F0000F
F0000F
F0000F
F0000F
F0000F
F0000F
F0000F
E0000E
4FFFE4
1FFFF0
1FFFF0
0FFFE0
ENDCHAR
STARTCHAR $00D6
ENCODING 214
SWIDTH 512 0
DWIDTH 32 0
BBX 24 52 4 0
BITMAP
0300C0
0781E0
0781E0
0781E0
0701C0
020080
000000
000000
0FFFE0
1FFFF0
1FFFF0
4FFFE4
E0000E
F0000F
F0000F
F0000F
F0000F
F0000F
F0000F
F0000F
F0000F
F0000F
F0000F
F0000F
F0000F
F0000F
F0000F
E0000E
400004
000000
000000
400004
E0000E
F0000F
F0000F
F0000F
F0000F
F0000F
F0000F
F0000F
F0000F
F0000F
F0000F
F0000F
F0000F
F0000F
F0000F
E0000E
4FFFE4
1FFFF0
1FFFF0
0FFFE0
ENDCHAR
STARTCHAR $00D9
ENCODING 217
SWIDTH 512 0
DWIDTH 32 0
BBX 24 54 4 0
BITMAP
000F00
001F00
003F00
007E00
00FC00
00F800
00F000
00E000
000000
000000
400004
E0000E
F0000F
F0000F
F0000F
F0000F
F0000F
F0000F
F0000F
F0000F
F0000F
F0000F
F0000F
F0000F
F0000F
F0000F
F0000F
F0000F
F0000F
E0000E
400004
000000
000000
400004
E0000E
F0000F
F0000F
F0000F
F0000F
F0000F
F0000F
F0000F
F0000F
F0000F
F0000F
F0000F
F0000F
F0000F
F0000F
E0000E
4FFFE4
1FFFF0
1FFFF0
0FFFE0
ENDCHAR
STARTCHAR $00DA
ENCODING 218
SWIDTH 512 0
DWIDTH 32 0
BBX 24 44 4 0
BITMAP
400004
E0000E
F0000F
F0000F
F0000F
F0000F
F0000F
F0000F
F0000F
F0000F
F0000F
F0000F
F0000F
F0000F
F0000F
F0000F
F0000F
F0000F
F0000F
E0000E
400004
000000
000000
400004
E0000E
F0000F
F0000F
F0000F
F0000F
F0000F
F0000F
F0000F
F0000F
F0000F
F0000F
F0000F
F0000F
F0000F
F0000F
E0000E
4FFFE4
1FFFF0
1FFFF0
0FFFE0
ENDCHAR
STARTCHAR $00DC
ENCODING 220
SWIDTH 512 0
DWIDTH 32 0
BBX 24 52 4 0
BITMAP
0300C0
0781E0
0781E0
0781E0
0701C0
020080
000000
000000
400004
E0000E
F0000F
F0000F
F0000F
F0000F
F0000F
F0000F
F0000F
F0000F
F0000F
F0000F
F0000F
F0000F
F0000F
F0000F
F0000F
F0000F
F0000F
E0000E
400004
000000
000000
400004
E0000E
F0000F
F0000F
F0000F
F0000F
F0000F
F0000F
F0000F
F0000F
F0000F
F0000F
F0000F
F0000F
F0000F
F0000F
E0000E
4FFFE4
1FFFF0
1FFFF0
0FFFE0
ENDCHAR
STARTCHAR $00DF
ENCODING 223
SWIDTH 464 0
DWIDTH 29 0
BBX 21 44 4 0
BITMAP
7FFF00
FFFF80
FFFF80
7FFF20
000070
000078
030078
078078
078078
078078
078078
078078
078078
078078
078078
078078
078078
030078
000078
000070
7FFF20
FFFF80
FFFF80
7FFF20
000070
000078
030078
078078
078078
078078
078078
078078
078078
078078
078078
078078
078078
030078
000078
000070
7FFF20
FFFF80
FFFF80
7FFF00
ENDCHAR
STARTCHAR $00E0
ENCODING 224
SWIDTH 512 0
DWIDTH 32 0
BBX 24 44 4 0
BITMAP
0FFFE0
1FFFF0
1FFFF0
4FFFE4
E0000E
F0000F
F0000F
F0000F
F0000F
F0000F
F0000F
F0000F
F0000F
F0000F
F0000F
F0000F
F0000F
F0000F
F0000F
E0000E
4FFFE4
1FFFF0
1FFFF0
4FFFE4
E0000E
F0000F
F0000F
F0000F
F0000F
F0000F
F0000F
F0000F
F0000F
F0000F
F0000F
F0000F
F0000F
F0000F
F0000F
F0000F
F0000F
F0000F
E0000E
400004
ENDCHAR
STARTCHAR $00E1
ENCODING 225
SWIDTH 512 0
DWIDTH 32 0
BBX 24 44 4 0
BITMAP
0FFFE0
1FFFF0
1FFFF0
4FFFE4
E0000E
F0000F
F0000F
F0000F
F0000F
F0000F
F0000F
F0000F
F0000F
F0000F
F0000F
F0000F
F0000F
F0000F
F0000F
E0000E
4FFFE4
1FFFF0
1FFFF0
4FFFE4
E0000E
F0000F
F0000F
F0000F
F0000F
F0000F
F0000F
F0000F
F0000F
F0000F
F0000F
F0000F
F0000F
F0000F
F0000F
F0000F
F0000F
F0000F
E0000E
400004
ENDCHAR
STARTCHAR $00E2
ENCODING 226
SWIDTH 512 0
DWIDTH 32 0
BBX 24 44 4 0
BITMAP
0FFFE0
1FFFF0
1FFFF0
4FFFE4
E0000E
F0000F
F0000F
F0000F
F0000F
F0000F
F0000F
F0000F
F0000F
F0000F
F0000F
F0000F
F0000F
F0000F
F0000F
E0000E
4FFFE4
1FFFF0
1FFFF0
4FFFE4
E0000E
F0000F
F0000F
F0000F
F0000F
F0000F
F0000F
F0000F
F0000F
F0000F
F0000F
F0000F
F0000F
F0000F
F0000F
F0000F
F0000F
F0000F
E0000E
400004
ENDCHAR
STARTCHAR $00E3
ENCODING 227
SWIDTH 512 0
DWIDTH 32 0
BBX 24 44 4 0
BITMAP
0FFFE0
1FFFF0
1FFFF0
4FFFE4
E0000E
F0000F
F0000F
F0000F
F0000F
F0000F
F0000F
F0000F
F0000F
F0000F
F0000F
F0000F
F0000F
F0000F
F0000F
E0000E
4FFFE4
1FFFF0
1FFFF0
4FFFE4
E0000E
F0000F
F0000F
F0000F
F0000F
F0000F
F0000F
F0000F
F0000F
F0000F
F0000F
F0000F
F0000F
F0000F
F0000F
F0000F
F0000F
F0000F
E0000E
400004
ENDCHAR
STARTCHAR $00E4
ENCODING 228
SWIDTH 512 0
DWIDTH 32 0
BBX 24 44 4 0
BITMAP
0FFFE0
1FFFF0
1FFFF0
4FFFE4
E0000E
F0000F
F0000F
F0000F
F0000F
F0000F
F0000F
F0000F
F0000F
F0000F
F0000F
F0000F
F0000F
F0000F
F0000F
E0000E
4FFFE4
1FFFF0
1FFFF0
4FFFE4
E0000E
F0000F
F0000F
F0000F
F0000F
F0000F
F0000F
F0000F
F0000F
F0000F
F0000F
F0000F
F0000F
F0000F
F0000F
F0000F
F0000F
F0000F
E0000E
400004
ENDCHAR
STARTCHAR $00E7
ENCODING 231
SWIDTH 464 0
DWIDTH 29 0
BBX 20 52 4 -8
BITMAP
0FFFE0
1FFFF0
1FFFF0
4FFFE0
E00000
F00000
F00000
F00000
F00000
F00000
F00000
F00000
F00000
F00000
F00000
F00000
F00000
F00000
F00000
E00000
400000
000000
000000
400000
E00000
F00000
F00000
F00000
F00000
F00000
F00000
F00000
F00000
F00000
F00000
F00000
F00000
F00000
F00000
E00000
4FFFE0
1FFFF0
1FFFF0
0FFFE0
000000
000000
002000
007000
00F000
00F000
007000
002000
ENDCHAR
STARTCHAR $00E8
ENCODING 232
SWIDTH 464 0
DWIDTH 29 0
BBX 20 44 4 0
BITMAP
0FFFE0
1FFFF0
1FFFF0
4FFFE0
E00000
F00000
F00000
F00000
F00000
F00000
F00000
F00000
F00000
F00000
F00000
F00000
F00000
F00000
F00000
E00000
4FFFE0
1FFFF0
1FFFF0
4FFFE0
E00000
F00000
F00000
F00000
F00000
F00000
F00000
F00000
F00000
F00000
F00000
F00000
F00000
F00000
F00000
E00000
4FFFE0
1FFFF0
1FFFF0
0FFFE0
ENDCHAR
STARTCHAR $00E9
ENCODING 233
SWIDTH 464 0
DWIDTH 29 0
BBX 20 44 4 0
BITMAP
0FFFE0
1FFFF0
1FFFF0
4FFFE0
E00000
F00000
F00000
F00000
F00000
F00000
F00000
F00000
F00000
F00000
F00000
F00000
F00000
F00000
F00000
E00000
4FFFE0
1FFFF0
1FFFF0
4FFFE0
E00000
F00000
F00000
F00000
F00000
F00000
F00000
F00000
F00000
F00000
F00000
F00000
F00000
F00000
F00000
E00000
4FFFE0
1FFFF0
1FFFF0
0FFFE0
ENDCHAR
STARTCHAR $00EA
ENCODING 234
SWIDTH 464 0
DWIDTH 29 0
BBX 20 44 4 0
BITMAP
0FFFE0
1FFFF0
1FFFF0
4FFFE0
E00000
F00000
F00000
F00000
F00000
F00000
F00000
F00000
F00000
F00000
F00000
F00000
F00000
F00000
F00000
E00000
4FFFE0
1FFFF0
1FFFF0
4FFFE0
E00000
F00000
F00000
F00000
F00000
F00000
F00000
F00000
F00000
F00000
F00000
F00000
F00000
F00000
F00000
E00000
4FFFE0
1FFFF0
1FFFF0
0FFFE0
ENDCHAR
STARTCHAR $00EC
ENCODING 236
SWIDTH 192 0
DWIDTH 12 0
BBX 4 44 4 0
BITMAP
40
E0
F0
F0
F0
F0
F0
F0
F0
F0
F0
F0
F0
F0
F0
F0
F0
F0
F0
E0
40
00
00
40
E0
F0
F0
F0
F0
F0
F0
F0
F0
F0
F0
F0
F0
F0
F0
F0
F0
F0
E0
40
ENDCHAR
STARTCHAR $00ED
ENCODING 237
SWIDTH 192 0
DWIDTH 12 0
BBX 4 44 4 0
BITMAP
40
E0
F0
F0
F0
F0
F0
F0
F0
F0
F0
F0
F0
F0
F0
F0
F0
F0
F0
E0
40
00
00
40
E0
F0
F0
F0
F0
F0
F0
F0
F0
F0
F0
F0
F0
F0
F0
F0
F0
F0
E0
40
ENDCHAR
STARTCHAR $00EE
ENCODING 238
SWIDTH 192 0
DWIDTH 12 0
BBX 4 44 4 0
BITMAP
40
E0
F0
F0
F0
F0
F0
F0
F0
F0
F0
F0
F0
F0
F0
F0
F0
F0
F0
E0
40
00
00
40
E0
F0
F0
F0
F0
F0
F0
F0
F0
F0
F0
F0
F0
F0
F0
F0
F0
F0
E0
40
ENDCHAR
STARTCHAR $00F2
ENCODING 242
SWIDTH 512 0
DWIDTH 32 0
BBX 24 44 4 0
BITMAP
0FFFE0
1FFFF0
1FFFF0
4FFFE4
E0000E
F0000F
F0000F
F0000F
F0000F
F0000F
F0000F
F0000F
F0000F
F0000F
F0000F
F0000F
F0000F
F0000F
F0000F
E0000E
400004
000000
000000
400004
E0000E
F0000F
F0000F
F0000F
F0000F
F0000F
F0000F
F0000F
F0000F
F0000F
F0000F
F0000F
F0000F
F0000F
F0000F
E0000E
4FFFE4
1FFFF0
1FFFF0
0FFFE0
ENDCHAR
STARTCHAR $00F3
ENCODING 243
SWIDTH 512 0
DWIDTH 32 0
BBX 24 44 4 0
BITMAP
0FFFE0
1FFFF0
1FFFF0
4FFFE4
E0000E
F0000F
F0000F
F0000F
F0000F
F0000F
F0000F
F0000F
F0000F
F0000F
F0000F
F0000F
F0000F
F0000F
F0000F
E0000E
400004
000000
000000
400004
E0000E
F0000F
F0000F
F0000F
F0000F
F0000F
F0000F
F0000F
F0000F
F0000F
F0000F
F0000F
F0000F
F0000F
F0000F
E0000E
4FFFE4
1FFFF0
1FFFF0
0FFFE0
ENDCHAR
STARTCHAR $00F4
ENCODING 244
SWIDTH 512 0
DWIDTH 32 0
BBX 24 44 4 0
BITMAP
0FFFE0
1FFFF0
1FFFF0
4FFFE4
E0000E
F0000F
F0000F
F0000F
F0000F
F0000F
F0000F
F0000F
F0000F
F0000F
F0000F
F0000F
F0000F
F0000F
F0000F
E0000E
400004
000000
000000
400004
E0000E
F0000F
F0000F
F0000F
F0000F
F0000F
F0000F
F0000F
F0000F
F0000F
F0000F
F0000F
F0000F
F0000F
F0000F
E0000E
4FFFE4
1FFFF0
1FFFF0
0FFFE0
ENDCHAR
STARTCHAR $00F5
ENCODING 245
SWIDTH 512 0
DWIDTH 32 0
BBX 24 44 4 0
BITMAP
0FFFE0
1FFFF0
1FFFF0
4FFFE4
E0000E
F0000F
F0000F
F0000F
F0000F
F0000F
F0000F
F0000F
F0000F
F0000F
F0000F
F0000F
F0000F
F0000F
F0000F
E0000E
400004
000000
000000
400004
E0000E
F0000F
F0000F
F0000F
F0000F
F0000F
F0000F
F0000F
F0000F
F0000F
F0000F
F0000F
F0000F
F0000F
F0000F
E0000E
4FFFE4
1FFFF0
1FFFF0
0FFFE0
ENDCHAR
STARTCHAR $00F6
ENCODING 246
SWIDTH 512 0
DWIDTH 32 0
BBX 24 52 4 0
BITMAP
0300C0
0781E0
0781E0
0781E0
0701C0
020080
000000
000000
0FFFE0
1FFFF0
1FFFF0
4FFFE4
E0000E
F0000F
F0000F
F0000F
F0000F
F0000F
F0000F
F0000F
F0000F
F0000F
F0000F
F0000F
F0000F
F0000F
F0000F
E0000E
400004
000000
000000
400004
E0000E
F0000F
F0000F
F0000F
F0000F
F0000F
F0000F
F0000F
F0000F
F0000F
F0000F
F0000F
F0000F
F0000F
F0000F
E0000E
4FFFE4
1FFFF0
1FFFF0
0FFFE0
ENDCHAR
STARTCHAR $00F7
ENCODING 247
SWIDTH 560 0
DWIDTH 35 0
BBX 26 24 4 1
BITMAP
000C0000
001E0000
001E0000
001E0000
000C0000
00000000
00000000
00000000
00000000
00000000
7FFFFF80
FFFFFFC0
FFFFFFC0
7FFFFF80
00000000
00000000
00000000
00000000
00040000
000E0000
001E0000
001E0000
000E0000
00040000
ENDCHAR
STARTCHAR $00F9
ENCODING 249
SWIDTH 512 0
DWIDTH 32 0
BBX 24 44 4 0
BITMAP
400004
E0000E
F0000F
F0000F
F0000F
F0000F
F0000F
F0000F
F0000F
F0000F
F0000F
F0000F
F0000F
F0000F
F0000F
F0000F
F0000F
F0000F
F0000F
E0000E
400004
000000
000000
400004
E0000E
F0000F
F0000F
F0000F
F0000F
F0000F
F0000F
F0000F
F0000F
F0000F
F0000F
F0000F
F0000F
F0000F
F0000F
E0000E
4FFFE4
1FFFF0
1FFFF0
0FFFE0
ENDCHAR
STARTCHAR $00FA
ENCODING 250
SWIDTH 512 0
DWIDTH 32 0
BBX 24 44 4 0
BITMAP
400004
E0000E
F0000F
F0000F
F0000F
F0000F
F0000F
F0000F
F0000F
F0000F
F0000F
F0000F
F0000F
F0000F
F0000F
F0000F
F0000F
F0000F
F0000F
E0000E
400004
000000
000000
400004
E0000E
F0000F
F0000F
F0000F
F0000F
F0000F
F0000F
F0000F
F0000F
F0000F
F0000F
F0000F
F0000F
F0000F
F0000F
E0000E
4FFFE4
1FFFF0
1FFFF0
0FFFE0
ENDCHAR
STARTCHAR $00FC
ENCODING 252
SWIDTH 512 0
DWIDTH 32 0
BBX 24 52 4 0
BITMAP
0300C0
0781E0
0781E0
0781E0
0701C0
020080
000000
000000
400004
E0000E
F0000F
F0000F
F0000F
F0000F
F0000F
F0000F
F0000F
F0000F
F0000F
F0000F
F0000F
F0000F
F0000F
F0000F
F0000F
F0000F
F0000F
E0000E
400004
000000
000000
400004
E0000E
F0000F
F0000F
F0000F
F0000F
F0000F
F0000F
F0000F
F0000F
F0000F
F0000F
F0000F
F0000F
F0000F
F0000F
E0000E
4FFFE4
1FFFF0
1FFFF0
0FFFE0
ENDCHAR
STARTCHAR $00FD
ENCODING 253
SWIDTH 512 0
DWIDTH 32 0
BBX 24 44 4 0
BITMAP
400004
E0000E
F0000F
F0000F
F0000F
F0000F
F0000F
F0000F
F0000F
F0000F
F0000F
F0000F
F0000F
F0000F
F0000F
F0000F
F0000F
F0000F
F0000F
E0000E
4FFFE4
1FFFF0
1FFFF0
0FFFE4
00000E
00000F
00000F
00000F
00000F
00000F
00000F
00000F
00000F
00000F
00000F
00000F
00000F
00000F
00000F
00000E
0FFFE4
1FFFF0
1FFFF0
0FFFE0
ENDCHAR
STARTCHAR $2000
ENCODING 8192
SWIDTH 432 0
DWIDTH 27 0
BBX 0 0 0 0
BITMAP
ENDCHAR
STARTCHAR $2001
ENCODING 8193
SWIDTH 864 0
DWIDTH 54 0
BBX 0 0 0 0
BITMAP
ENDCHAR
STARTCHAR $2002
ENCODING 8194
SWIDTH 432 0
DWIDTH 27 0
BBX 0 0 0 0
BITMAP
ENDCHAR
STARTCHAR $2003
ENCODING 8195
SWIDTH 864 0
DWIDTH 54 0
BBX 0 0 0 0
BITMAP
ENDCHAR
STARTCHAR $2004
ENCODING 8196
SWIDTH 288 0
DWIDTH 18 0
BBX 0 0 0 0
BITMAP
ENDCHAR
STARTCHAR $2005
ENCODING 8197
SWIDTH 224 0
DWIDTH 14 0
BBX 0 0 0 0
BITMAP
ENDCHAR
STARTCHAR $2006
ENCODING 8198
SWIDTH 144 0
DWIDTH 9 0
BBX 0 0 0 0
BITMAP
ENDCHAR
STARTCHAR $2007
ENCODING 8199
SWIDTH 144 0
DWIDTH 9 0
BBX 0 0 0 0
BITMAP
ENDCHAR
STARTCHAR $2008
ENCODING 8200
SWIDTH 112 0
DWIDTH 7 0
BBX 0 0 0 0
BITMAP
ENDCHAR
STARTCHAR $2009
ENCODING 8201
SWIDTH 176 0
DWIDTH 11 0
BBX 0 0 0 0
BITMAP
ENDCHAR
STARTCHAR $200A
ENCODING 8202
SWIDTH 48 0
DWIDTH 3 0
BBX 0 0 0 0
BITMAP
ENDCHAR
STARTCHAR $2010
ENCODING 8208
SWIDTH 416 0
DWIDTH 26 0
BBX 17 4 4 20
BITMAP
7FFF00
FFFF80
FFFF80
7FFF00
ENDCHAR
STARTCHAR $2011
ENCODING 8209
SWIDTH 416 0
DWIDTH 26 0
BBX 17 4 4 20
BITMAP
7FFF00
FFFF80
FFFF80
7FFF00
ENDCHAR
STARTCHAR $2012
ENCODING 8210
SWIDTH 416 0
DWIDTH 26 0
BBX 17 4 4 20
BITMAP
7FFF00
FFFF80
FFFF80
7FFF00
ENDCHAR
STARTCHAR $2013
ENCODING 8211
SWIDTH 624 0
DWIDTH 39 0
BBX 31 4 4 20
BITMAP
3FFFFFF8
7FFFFFFC
FFFFFFFE
3FFFFFF8
ENDCHAR
STARTCHAR $2014
ENCODING 8212
SWIDTH 1136 0
DWIDTH 71 0
BBX 61 4 5 20
BITMAP
0FFFFFFFFFFFFF80
FFFFFFFFFFFFFFF0
7FFFFFFFFFFFFFF8
0FFFFFFFFFFFFF00
ENDCHAR
STARTCHAR $2018
ENCODING 8216
SWIDTH 272 0
DWIDTH 17 0
BBX 9 14 4 -8
BITMAP
0180
0780
0780
0F80
0F00
1F00
1E00
3E00
7C00
7800
F800
F000
F000
C000
ENDCHAR
STARTCHAR $201C
ENCODING 8220
SWIDTH 288 0
DWIDTH 18 0
BBX 10 6 4 38
BITMAP
4100
E380
F3C0
F3C0
E380
4100
ENDCHAR
STARTCHAR $202F
ENCODING 8239
SWIDTH 176 0
DWIDTH 11 0
BBX 0 0 0 0
BITMAP
ENDCHAR
STARTCHAR $205F
ENCODING 8287
SWIDTH 224 0
DWIDTH 14 0
BBX 0 0 0 0
BITMAP
ENDCHAR
STARTCHAR $20AC
ENCODING 8364
SWIDTH 464 0
DWIDTH 29 0
BBX 20 44 4 0
BITMAP
0FFFE0
1FFFF0
1FFFF0
4FFFE0
E00000
F00000
F00000
F00000
F00000
F00000
F00000
F0FF00
F1FF80
F1FF80
F0FF00
F00000
F00000
F00000
F00000
E00000
4FFFE0
1FFFF0
1FFFF0
4FFFE0
E00000
F00000
F00000
F00000
F00000
F0FF00
F1FF80
F1FF80
F0FF00
F00000
F00000
F00000
F00000
F00000
F00000
E00000
4FFFE0
1FFFF0
1FFFF0
0FFFE0
ENDCHAR
STARTCHAR $25FC
ENCODING 9724
SWIDTH 704 0
DWIDTH 44 0
BBX 44 44 0 0
BITMAP
FFFFFFFFFFF0
FFFFFFFFFFF0
FFFFFFFFFFF0
FFFFFFFFFFF0
FFFFFFFFFFF0
FFFFFFFFFFF0
FFFFFFFFFFF0
FFFFFFFFFFF0
FFFFFFFFFFF0
FFFFFFFFFFF0
FFFFFFFFFFF0
FFFFFFFFFFF0
FFFFFFFFFFF0
FFFFFFFFFFF0
FFFFFFFFFFF0
FFFFFFFFFFF0
FFFFFFFFFFF0
FFFFFFFFFFF0
FFFFFFFFFFF0
FFFFFFFFFFF0
FFFFFFFFFFF0
FFFFFFFFFFF0
FFFFFFFFFFF0
FFFFFFFFFFF0
FFFFFFFFFFF0
FFFFFFFFFFF0
FFFFFFFFFFF0
FFFFFFFFFFF0
FFFFFFFFFFF0
FFFFFFFFFFF0
FFFFFFFFFFF0
FFFFFFFFFFF0
FFFFFFFFFFF0
FFFFFFFFFFF0
FFFFFFFFFFF0
FFFFFFFFFFF0
FFFFFFFFFFF0
FFFFFFFFFFF0
FFFFFFFFFFF0
FFFFFFFFFFF0
FFFFFFFFFFF0
FFFFFFFFFFF0
FFFFFFFFFFF0
FFFFFFFFFFF0
ENDCHAR
ENDFONT
